<?xml version="1.0" standalone="no"?><!DOCTYPE svg PUBLIC "-//W3C//DTD SVG 1.1//EN" "http://www.w3.org/Graphics/SVG/1.1/DTD/svg11.dtd"><svg class="icon" width="200px" height="200.00px" viewBox="0 0 1024 1024" version="1.1" xmlns="http://www.w3.org/2000/svg"><path d="M909.056 466.3296l-66.56-81.6128a397.056 397.056 0 0 0-47.0528-160.6144c-78.2848-141.312-220.16-170.9568-325.4784-170.9568-179.5072 0-265.1648 85.8112-305.7664 157.8496-63.4368 113.152-51.968 261.5296-4.2496 339.6608 84.5312 138.24 90.4704 252.8256 19.8144 383.0272a25.6 25.6 0 0 0 22.4768 37.7856h442.1632a25.6 25.6 0 0 0 37.4784-22.6816v-61.9008c0-18.1248 3.3792-31.3344 9.3696-36.2496 7.8336-6.4512 25.6-3.0208 37.3248-0.768l4.8128 0.9216c20.48 3.7376 74.6496 13.568 104.6528-16.5888 10.9568-11.0592 22.6304-31.6416 15.9232-67.2256-5.12-28.3136-9.6256-45.3632-12.1856-55.552-0.7168-2.816-1.4336-5.6832-1.8944-7.7824 0.9728-1.6896 2.2016-3.584 3.5328-5.632 8.3968-13.2096 25.9072-40.96 16.8448-66.1504 6.2976-17.4592 2.7136-37.376-1.9968-52.1728l40.0384-29.3888a58.368 58.368 0 0 0 10.752-83.968z m-117.1968-71.68a25.6 25.6 0 0 0 5.7344 15.9232l71.68 88.2176 0.512 0.8704h-145.5104a25.6 25.6 0 0 0-15.36 46.08 35.84 35.84 0 1 1-43.4688 0 25.6 25.6 0 0 0-15.36-46.08H546.816v-56.32a87.04 87.04 0 1 0 23.3984-171.264 88.6272 88.6272 0 0 0-23.3984 3.1232V110.5408c239.2064 41.1136 244.8896 273.4592 245.0432 283.9552zM208.896 236.032c48.2816-86.1696 138.6496-131.6864 261.12-131.6864 8.7552 0 17.2032 0.256 25.6 0.6656v216.9856a25.6 25.6 0 0 0 46.08 15.36 35.84 35.84 0 0 1 28.672-14.2848 35.84 35.84 0 1 1-28.672 57.7536 25.6 25.6 0 0 0-46.08 15.36v103.3216h-56.32a89.0368 89.0368 0 0 0 3.2256-23.3472A87.04 87.04 0 1 0 271.36 499.5072H191.4368c-28.2112-68.6592-30.0032-178.944 17.4592-263.4752z m10.24 314.6752h98.9696a25.6 25.6 0 0 0 15.36-46.08 35.84 35.84 0 1 1 43.4688 0 25.6 25.6 0 0 0 15.36 46.08H495.616v56.32a87.04 87.04 0 1 0 0 168.0896v145.2544H243.4048c68.3008-154.0608 27.9552-276.1728-24.064-369.664z m592.7936 63.3856a25.856 25.856 0 0 0-0.768 35.1232 92.16 92.16 0 0 1-11.1616 21.2992c-1.6896 2.6624-3.2256 5.12-4.5568 7.3216-10.24 17.3056-8.5504 26.112-3.5328 46.08 2.6112 10.24 6.5024 25.6 11.52 52.5312 0.9216 5.12 2.6624 17.0496-1.8944 21.6576-3.328 3.328-15.7184 10.24-59.1872 2.304l-4.2496-0.8192c-18.5856-3.584-53.1968-10.24-79.6672 11.52-18.5344 15.36-27.9552 40.96-27.9552 75.776v33.3824H546.816v-192.0512a25.6 25.6 0 0 0-46.08-15.36 35.84 35.84 0 1 1 0-43.4688 25.6 25.6 0 0 0 46.08-15.36v-103.3216h56.32a88.9344 88.9344 0 0 0-3.1232 23.3984 87.04 87.04 0 1 0 171.264-23.3984h40.192a25.6 25.6 0 0 0-7.0656 31.6416c5.376 11.0592 9.216 26.9312 7.7312 31.744z" fill="#433F44" /></svg>